<svg xmlns="http://www.w3.org/2000/svg" xmlns:xlink="http://www.w3.org/1999/xlink" width="34" height="34" viewBox="0 0 34 34"><defs><style>.a{fill:none;}.b{fill-rule:evenodd;fill:url(#a);}</style><radialGradient id="a" cx="5.076" cy="34.118" r="43.443" gradientUnits="userSpaceOnUse"><stop offset="0" stop-color="#ffb140"/><stop offset="0.256" stop-color="#ff5445"/><stop offset="0.599" stop-color="#fc2b82"/><stop offset="1" stop-color="#8e40b7"/></radialGradient></defs><g transform="translate(0 0)"><rect class="a" width="34" height="34" transform="translate(0 0)"/><path class="b" d="M28.115,7.925a2.04,2.04,0,1,1-2.04-2.04A2.04,2.04,0,0,1,28.115,7.925ZM17,22.667A5.667,5.667,0,1,1,22.667,17,5.667,5.667,0,0,1,17,22.667Zm0-14.4A8.73,8.73,0,1,0,25.73,17,8.73,8.73,0,0,0,17,8.27Zm0-5.207c4.539,0,5.077.017,6.869.1a9.4,9.4,0,0,1,3.157.585A5.268,5.268,0,0,1,28.981,5.02a5.264,5.264,0,0,1,1.272,1.955,9.411,9.411,0,0,1,.585,3.157c.082,1.793.1,2.33.1,6.87s-.017,5.077-.1,6.869a9.4,9.4,0,0,1-.585,3.157,5.631,5.631,0,0,1-3.227,3.227,9.411,9.411,0,0,1-3.157.585c-1.792.082-2.33.1-6.869.1s-5.077-.017-6.87-.1a9.4,9.4,0,0,1-3.157-.585,5.268,5.268,0,0,1-1.955-1.272,5.267,5.267,0,0,1-1.272-1.955,9.411,9.411,0,0,1-.585-3.157c-.082-1.793-.1-2.33-.1-6.869s.017-5.077.1-6.87a9.4,9.4,0,0,1,.585-3.157A5.268,5.268,0,0,1,5.019,5.02,5.264,5.264,0,0,1,6.974,3.748a9.411,9.411,0,0,1,3.157-.585C11.923,3.08,12.461,3.063,17,3.063ZM17,0c-4.617,0-5.2.02-7.009.1a12.478,12.478,0,0,0-4.126.79A8.33,8.33,0,0,0,2.853,2.853,8.33,8.33,0,0,0,.892,5.864,12.479,12.479,0,0,0,.1,9.991C.02,11.8,0,12.383,0,17s.02,5.2.1,7.009a12.479,12.479,0,0,0,.79,4.126,8.33,8.33,0,0,0,1.961,3.011,8.334,8.334,0,0,0,3.011,1.961,12.479,12.479,0,0,0,4.126.79c1.813.083,2.392.1,7.009.1s5.2-.02,7.009-.1a12.479,12.479,0,0,0,4.126-.79,8.693,8.693,0,0,0,4.972-4.972,12.479,12.479,0,0,0,.79-4.126C33.98,22.2,34,21.617,34,17s-.02-5.2-.1-7.009a12.479,12.479,0,0,0-.79-4.126,8.334,8.334,0,0,0-1.961-3.011A8.334,8.334,0,0,0,28.136.892,12.479,12.479,0,0,0,24.009.1C22.2.02,21.617,0,17,0Z" transform="translate(0 0)"/></g></svg>