<svg xmlns="http://www.w3.org/2000/svg" width="60" height="60" viewBox="0 0 60 60"><defs><style>.a{fill:#fff;stroke:#ccc;}.b{stroke:none;}.c{fill:none;}</style></defs><g transform="translate(-261 -1218)"><g class="a" transform="translate(261 1218)"><circle class="b" cx="30" cy="30" r="30"/><circle class="c" cx="30" cy="30" r="29.5"/></g><path d="M32.882,2.5a1.123,1.123,0,0,1,.792.317,1.1,1.1,0,0,1,0,1.563l-7.5,7.522,7.5,7.5a1.105,1.105,0,1,1-1.563,1.563l-8.293-8.273A1.09,1.09,0,0,1,23.5,11.9a1.178,1.178,0,0,1,.317-.792L32.11,2.817a1.077,1.077,0,0,1,.772-.317Z" transform="translate(260.5 1236.5)"/></g></svg>