<svg xmlns="http://www.w3.org/2000/svg" viewBox="0 0 1974.39 1974.39"><defs><style>.cls-1{fill:#00285e;}.cls-2{fill:#fff;}.cls-3,.cls-4{fill:#6caddf;}.cls-4{font-size:116.04px;font-family:Gotham-Bold, Gotham;font-weight:700;}.cls-5{fill:#7dc1ea;}.cls-6{fill:#fcc054;}.cls-23,.cls-7,.cls-8{fill:none;stroke-miterlimit:10;}.cls-7{stroke:#ffc758;}.cls-7,.cls-8{stroke-width:20px;}.cls-8{stroke:#ee3124;}.cls-11,.cls-9{fill:#ffc758;}.cls-10,.cls-12{fill:#d4a11e;}.cls-11,.cls-12,.cls-23{fill-rule:evenodd;}.cls-13{fill:#e0a336;}.cls-14{fill:#03295c;}.cls-15{fill:#4179b5;}.cls-16{fill:#2a5e96;}.cls-17{fill:#f2f2f2;}.cls-18{fill:#f5f5f5;}.cls-19{fill:#e2a63b;}.cls-20{fill:#4c7d9b;}.cls-21{fill:#fcfcfc;}.cls-22{fill:#f9f8f7;}.cls-23{stroke:#00285e;stroke-width:30px;}</style></defs><title>Asset 2</title><g id="Layer_2" data-name="Layer 2"><g id="Layer_1-2" data-name="Layer 1"><path class="cls-1" d="M987.19,0C443,0,0,443,0,987.19s443,987.2,987.19,987.2,987.2-443,987.2-987.2C1973.91,443,1531.4,0,987.19,0"/><path class="cls-2" d="M1871.23,987.19c0-488.29-395.74-884-884.52-884-488.29,0-884.52,395.75-884.52,884s396.23,884.53,884.52,884.53c488.78-.49,884.52-396.23,884.52-884.53"/><path class="cls-1" d="M987.19,1594.55c-335,0-607.35-272.83-607.35-607.84S652.18,379.36,987.19,379.36,1595,651.7,1595,986.71c-.48,335.49-272.83,607.84-607.84,607.84Zm0-1181C671,413.58,413.58,671,413.58,987.19S671,1560.81,987.19,1560.81s573.62-257.4,573.62-573.62-257.4-573.61-573.62-573.61Z"/><path class="cls-3" d="M987.19,1933.9c-522,0-946.7-424.67-946.7-946.71s424.67-946.7,946.7-946.7,946.71,424.67,946.71,946.7c-.48,522-424.67,946.71-946.71,946.71m0-1873.16c-510.95,0-926,415.5-926,926.45,0,510.47,415.51,926,926,926s926-415.51,926-926c0-510.95-415.51-926.45-926-926.45"/><path class="cls-3" d="M987.19,1539.6c-304.51,0-552.4-247.89-552.4-552.41s247.89-552.4,552.4-552.4,552.41,247.89,552.41,552.4S1291.71,1539.6,987.19,1539.6"/><text class="cls-4" transform="translate(171.55 1037.68)">20</text><text class="cls-4" transform="translate(1670.12 1037.68)">17</text><path class="cls-2" d="M1485.86,996.4c0-183.48-10-328.66-36.25-478.11C1284.83,481,991.38,481,991.38,481S635,501.62,533.15,518.29C506.54,670.75,496.89,996.4,496.89,996.4s174.78,571.86,490.6,571.86c272-9.68,498.37-256,498.37-571.86"/><path class="cls-3" d="M1485.91,997c-1062.52-.53,154.87,0-989,0,7,243.48,137.75,513.17,494.49,612.92,216-71.52,469.36-219.24,494.48-612.92"/><path class="cls-5" d="M723.53,997.9,1178.34,1527c45.15-11.08,15.25-16.21,58.6-40.72L819.14,997.9Z"/><path class="cls-5" d="M919.28,997.9,1279,1416.44l47.65-54.07L1014.89,997.9Z"/><path class="cls-5" d="M1103.5,996.85l276.72,321.94,36.17-67.94-217.29-254Z"/><path class="cls-6" d="M970.54,520h.54c2.73-.54,3.82-1.63,3.82-3.27h0a3.45,3.45,0,0,1,2.73-3.27L974.35,503c-3.27,1.1-4.36,3.28-4.36,3.82,0,1.64-1.09,2.18-2.73,2.73Z"/><path class="cls-7" d="M250.44,1565.85C-68.65,1159.61,2.23,569.53,408.43,250.39s996.22-248.27,1315.3,158"/><path class="cls-8" d="M1723.73,408.36c319.08,406.24,248.21,996.32-158,1315.46s-996.21,248.27-1315.29-158"/><path class="cls-9" d="M1141.87,762.71l97.86-33.86s-8.35,40.81-6,72.35c2.78,40.81,26.43,71.89,26.43,71.89l-120.58,41.74Z"/><path class="cls-10" d="M1260.13,873.09s-21.33-30.61-25-66.32c-2.79-26.9,0-50.09,4.64-77.92-4.18,18.55-20,71-64,119.66C1158.1,868,1150.21,885.15,1147,897.2l-1.86-230.5h0s-23.19,8.35-25.51,8.82c-2.78.92-4.17,2.78-4.17,3.24,0,1.39-.93,2.32-2.78,2.78s-15.31,5.57-24.58,8.35a1.16,1.16,0,0,0,0,2.32c11.13-.46,26.9-1.85,28.29-1.85,2.32-.47,3.24-1.4,3.24-2.79v-.46a3.94,3.94,0,0,1,3.71-3.25c1.4,0,9.74-.92,14.85-1.85l-2.32,248.12H1147V912.51Z"/><path class="cls-9" d="M826.49,921.32a68.3,68.3,0,0,1-23.19-39c-5.1-26,7.89-40.81,7.89-40.81l118.73-40.81a101.41,101.41,0,0,0-.47,50.55c8.81,33.86,26.9,56.58,26.9,56.58s-43.59-8.35-85.8-2.78C830.67,910.19,826.49,921.32,826.49,921.32Z"/><path class="cls-9" d="M690.14,891.64s14.84-40.35,58-84.41c32.93-33.39,54.26-43.13,54.26-43.13s-19,27.36-26.89,72.35c-5.11,27.83.46,63.07.46,63.07s-22.26-4.63-47.77-7.42A192.9,192.9,0,0,0,690.14,891.64Z"/><path class="cls-10" d="M802.37,764.1s-18.55,27.36-26.43,72.35c-5.1,27.83.46,63.07.46,63.07s-5.56-1.39-18.55-4.17C705,883.29,802.37,764.1,802.37,764.1Z"/><path class="cls-10" d="M871.94,796.56,871,689.89h0c-2.32.93-23.19,7.89-25.51,8.81-2.79.93-4.18,2.79-4.18,3.71,0,1.4-.92,2.32-2.78,2.79s-15.3,5.1-24.58,8.35a1.16,1.16,0,0,0,0,2.31c10.67-.46,26.9-1.85,28.29-1.85,2.32-.46,3.25-1.39,3.71-2.78v-.47a3.94,3.94,0,0,1,3.71-3.24c1.39,0,9.28-.93,14.84-1.4L863.59,797h8.35Z"/><path class="cls-10" d="M1010.15,700.1h8.35V597.6h0S995.31,606,993,606.41c-2.78.93-4.17,2.78-4.17,3.25,0,1.39-.93,2.32-2.79,2.78s-15.3,5.1-24.58,8.35a1.17,1.17,0,0,0,0,2.32c11.13-.47,26.9-1.86,28.29-1.86,2.32-.46,3.25-1.39,3.71-2.78h0a4,4,0,0,1,3.72-3.25c1.39,0,8.81-.92,14.37-1.39Z"/><path class="cls-9" d="M989.28,621.72h.46c2.32-.47,3.25-1.4,3.25-2.79h0a2.94,2.94,0,0,1,2.32-2.78l-2.78-8.81c-2.79.93-3.71,2.78-3.71,3.25,0,1.39-.93,1.85-2.32,2.31Z"/><path class="cls-9" d="M841.8,713.55h.46c2.32-.47,3.25-1.4,3.25-2.79h0c.46-1.39.92-2.32,2.32-2.78L845,699.17c-2.78.93-3.71,2.78-3.71,3.24,0,1.4-.92,1.86-2.32,2.32Z"/><path class="cls-9" d="M1115.43,690.36h.46c2.32-.47,3.25-1.4,3.25-2.79h0c.46-1.39.93-2.32,2.32-2.78l-2.78-8.81c-2.79.93-3.71,2.78-3.71,3.25,0,1.39-.93,1.85-2.32,2.31Z"/><path class="cls-10" d="M956.35,907.87s-19-27.83-26.43-57.51c-6.5-25.51,0-49.62,0-49.62S917.39,844.33,887.25,868c-20.87,16.69-72.35,32-60.29,53.33,1.85-2.78,6.95-8.35,27.82-13.45,2.32-.46,5.1-.93,7.89-1.39v35.25H873.8V905.09C912.29,900.92,956.35,907.87,956.35,907.87Z"/><path class="cls-9" d="M814,834.13s-13.91-8.35-12.06-35.25c1.86-27.82,15.77-39.88,15.77-40.81L910,726.53s-7,13.92-1.85,34.79a79.51,79.51,0,0,0,21.8,39.42s-46.38.46-88.12,14.84C821.39,822.54,814,834.13,814,834.13Z"/><path class="cls-10" d="M868.7,776.16c26.43-21.8,40.81-49.63,40.81-49.63s-3.71,17.63-.93,33.39c5.1,26.9,20.87,40.82,20.87,40.82a331.46,331.46,0,0,0-77.91,12.06c-26.9,7.42-35.25,18.08-37.57,21.79C805.16,814.19,841.8,798.42,868.7,776.16Z"/><path class="cls-9" d="M974,928.28s-25.51-19-31.54-54.73c-5.1-28.29,13.91-48.7,13.91-48.7l144.24-49.62s-7.89,32-.46,62.61c8.34,34.32,39.88,77,39.88,77s-59.83-17.16-111.77-10.67C978.61,910.65,974,928.28,974,928.28Z"/><path class="cls-9" d="M944.76,699.63c-.93-21.8,14.37-39.42,14.84-40.35L1063,623.11s-7,16.23-5.1,30.14c3.25,26.44,18.09,40.35,18.09,40.35s-40.81-2.32-88.58,14.38c-26.44,9.28-29.22,21.8-29.22,21.8S945.68,726.53,944.76,699.63Z"/><path class="cls-10" d="M1026.38,671.8c18.55-16.23,36.64-48.23,36.64-48.23s-7,16.23-5.1,30.15c3.25,26.43,18.09,40.35,18.09,40.35s-44.06-.47-86.27,14.37c-18.08,6.5-29.68,16.24-31.07,21.8C952.64,709.84,1000.88,694.07,1026.38,671.8Z"/><path class="cls-9" d="M959.6,818.83S944.76,801.66,942,774.77c-2.78-27.83,13.45-39,14.85-39.89l119.65-41.28s-3.24,8.81-.46,32.93c2.78,20.41,22.72,48.24,22.72,48.24s-64,1.85-103.42,17.16C970.27,801.66,959.6,818.83,959.6,818.83Z"/><path class="cls-10" d="M1038.91,749.72c26-22.26,37.56-55.65,37.56-55.65s-3.24,19,0,33.85c6,26,24.58,47.77,24.58,47.77s-55.65.93-96,14.38c-26.44,8.81-42.67,24.58-45,29.22C954,796.56,1012.93,772,1038.91,749.72Z"/><path class="cls-10" d="M1142.33,917.15s-32.46-42.21-42.2-79.31c-6-24.58-1.4-52.41.46-62.15-3.71,13-16.7,55.19-48.7,84.88-30.61,28.29-90.9,41.74-77.91,68.17,2.31-4.17,9.27-14.38,33.85-20.4l-.46,33.85H1019V906C1072.3,897.67,1142.33,917.15,1142.33,917.15Z"/><path class="cls-11" d="M1198,996.46c7.43-1.4,14.85-3.25,26-6-.47-.47-1.39-.93-1.86-1.4-12.06-13.45-10.2-27.82-2.78-34.78,26.9-25,26.43-43.6,26.43-43.6s-65.39,13.45-151.65,18.09c-5.57.47-25.51,9.28-31.54,9.28-12.06.46-24.12.93-36.64.93-162.79,1.39-208.24-10.21-261.58-20-54.26-10.2-77.91-20.87-77.91-20.87l-1.86,5.57s42.67,16.69,73.28,31.54c6.49,3.24,36,47.5,44.37,60.49,0,0-4.79-30.88,36.79-20.15,18.56,4.64,37.11,9.28,54.73,8.35C937.8,981.61,931.31,970,935.48,970c45.45,2.78,62.61,13.91,102,13,36.18-.47,48.7-10.21,52-10.21,44.06-.46,60.75,19.94,104.81,23.65Z"/><path class="cls-12" d="M1212.82,990c-15.3-14.84-3.7-34.78,1.4-39.42,22.72-20.41,22.72-34.32,22.72-34.32s-52.41,13-138.67,16.7c-5.57,0-29.68,11.13-35.71,11.13-12.06.46-28.76.92-41.28.92-112.23,0-167.42-2.31-264.82-23.18a67.08,67.08,0,0,1,4.64,6c.46.93,42.67,11.6,43.13,12.53,6.49,8.81,14.84,14.84,25,20.4,15.77,8.35,39,15.31,58,16.7,44.06,2.78,35.71-13.91,39.88-13.91,45-.93,74.21,15.3,113.63,14.84,36.18-.47,37.1-12.06,40.81-12.06,35.72-1.86,71.89,13.45,103,23.65Z"/><path class="cls-13" d="M876.36,1102.1s1,10.93-4.63,14.25c5.93.4,13,1.6,19.59-9.12l.82-2.61-7.28-9.72-6.16,2.33Z"/><path class="cls-14" d="M913.38,1250.25c-.44,5.39-1.2,14.49-1.2,14.49l-7.18-2.06s.62,8,2.67,12.31c-4.1-.21-11.69-2.67-11.69-2.67s-.61,9-1.84,11.69c-3.9,0-10.46,4.51-10.46,4.51s.61,6.77,1,14.35a52.94,52.94,0,0,1-2.25,15.59s-1-1.44-4.92-6.57a34.65,34.65,0,0,0,2.46,14.56l-8.2-.41,5.74,17a63,63,0,0,1-10,.62c2.26,4.92,9.23,18,9.23,18a69.07,69.07,0,0,1-10.46,2.25c3.08,8,4.74,24.24,4.74,24.24-94.9-70.16-98.79-179.27-97.69-204.71s15.57-70.2,51.33-74.37,58.79,25.89,66.91,33.35c14.77,14.32,30.76,6.32,30.76,6.32s17.83,46.46,47.54-5.44"/><path class="cls-9" d="M920.3,1193.18c-13.69,4-11,45.9-54.62-9.58-4-4.56-21.63-31.18-35.91-31-14.82,1-22.52,14.61-25.26,21.31s-15.29,54.56,6.39,113.51c14.44,38.33,34.05,69,60.09,100.83-39.73-40.63-51-61-65.26-96s-18.56-80-16.43-103.47,10.65-46.11,25.26-50.29,47.77,15,54.77,27.16C880.9,1176.6,920.3,1193.18,920.3,1193.18Z"/><path class="cls-2" d="M871,1388.21c-94.9-70.16-97.32-179.27-96.22-204.71s15.57-70.2,51.33-74.37S884.89,1135,893,1142.48c14.77,14.32,30.76,6.32,30.76,6.32l9.75,14.56s-24,23.93-52.75,13.62-35.3-50.51-70.09-27.7C774.62,1177.86,782.1,1302.35,871,1388.21Z"/><path class="cls-15" d="M927.27,1161.66s-19.2,10.06,10.58,15.37S969,1143.36,969,1143.36c-29.72,51.9-47.55,5.44-47.55,5.44s-14.82,6.91-29.59-7.42c-10.23-10-31.47-36.55-68.08-32.25-35.76,4.17-50.23,48.92-51.33,74.37s3.63,134.55,98.53,204.71c0,0-92.2-70.65-86.87-205.44,4.26-56,37.1-65.53,41.88-66.17s33.58-3.08,53.77,31.71C897.31,1175.93,914.55,1175.36,927.27,1161.66Z"/><path class="cls-16" d="M991,1140.1c.94,57.52.25,233.16.25,233.16s-28.54-10.49-49.52-42.69c2.44-10.73,6.55-18-2.93-46.59-12.63-33.45-43.91-36.35-49-82.45s34.15-60,39.76-63.42c9.69-4.13,17.81-23.9-.49-45.37-3.65,7.56-19.75,23.42-35.61,9-14.39-13.91-1-32.45,3.66-36.59,11.31-10.92,30.73-9.52,51,0S990.37,1100.38,991,1140.1Z"/><path class="cls-17" d="M941.74,1330.55c2.44-10.73,6.55-18-2.93-46.59-12.63-33.44-43.91-36.34-49-82.44s34.15-60,39.76-63.43c9.69-4.13,17.81-23.9-.49-45.37-3.65,7.57-3.46-32.39,16.79-22.88,0,0,26.16,46.75-12.32,72.53-16.73,9.62-36.69,25.66-32.06,59.18s37.62,39.21,46.8,80.56C951.63,1298,953.14,1317.32,941.74,1330.55Z"/><path class="cls-17" d="M936.6,1080s26,14.33,32.86,78.22,22,215.07,22,215.07-9-198.92-9.65-233-20.67-59.39-45.92-73.13Z"/><path class="cls-15" d="M948.48,1078s25.44,15.37,29.68,79.49,13.27,215.78,13.27,215.78-1-199.12-.24-233.15-18.25-60.18-42.93-74.93Z"/><path class="cls-18" d="M929.23,1092.75c-3.66,7.56-19.76,23.42-35.61,9-14.09-15.33-1.66-31.89,3.48-36.59,11.54-11.32,30.91-9.51,51.16,0,0,0-29.19-10.26-47.43,2.35-14.07,11-12.47,28.73.19,36.27C907,1106.92,918.39,1107.05,929.23,1092.75Z"/><path class="cls-9" d="M990.91,1317.9c-5.55-3.88-23.9-19.05-29-29.2.4-36-10.19-59.57-19.26-73.08,16.11-13.83,44-18.54,48.33-19.2Z"/><path class="cls-9" d="M990.43,1197l0,119.92c-6.26-4.57-23.09-18.71-28-28.35.37-35.74-10.06-59.25-19.1-72.87,8.94-7.52,21.35-12.21,30.29-14.85a139.6,139.6,0,0,1,16.88-3.85m1-1.17s-31.84,4.24-49.5,19.69c8.39,12.36,19.87,35.76,19.43,73.29,5.3,10.59,25.22,26.93,30,30l0-123Z"/><path class="cls-19" d="M991.41,1318.84c-4.83-3.09-24.75-19.43-30-30,.44-37.53-11-60.93-19.43-73.29,17.66-15.45,49.5-19.69,49.5-19.69v9.23s-23.69,1.69-39.76,11.84c1.69,4.23,16.07,37.39,13.2,71.06C965.71,1290.51,974.63,1303,991.41,1318.84Z"/><path class="cls-15" d="M924.21,1057.89s7.21,22.39-3.31,38.83c-3.28,5-7.52,12.51-23.59,7.86,4.56,3.35,19.37,7.71,32.13-11.78,7.9-12.91,1.9-33.66,1.9-33.66l-7.13-1.25"/><path class="cls-9" d="M953.24,1067.82c14.6,10,22.77,27.88,19,42.57-8.56,33.57-42.56,27.71-42.56,27.71s23.35-13.79-.42-45.08c0,0,6.13-10.36,1.91-34C931.21,1059,946.3,1063.05,953.24,1067.82Z"/><path class="cls-14" d="M991.63,1383.84a75.12,75.12,0,0,1-39.4-27.87c-2.34,7.1-9.2,32.75-46.26,31-.67,4.88-.89,9.1-.89,9.1l-7.77,2.88a120,120,0,0,0,9.32,8.43c-.22,5.77-3.55,17.76-3.55,17.76l15.32-.89v17.31l15.66-1.33,1.87,16.87,12.87-2.67,10,18.64,13.31-4.43-.66,4.43s15.3,9.55,20.19,14.43Z"/><path class="cls-20" d="M897.31,1104.58c1.93,1.26-3.66,2.58-6,2.65-11.24-8.15-10.61-20.51-10.54-25.13a8.54,8.54,0,0,1,6.91-8,14,14,0,0,1,0,8A21.55,21.55,0,0,0,897.31,1104.58Z"/><circle class="cls-18" cx="907.52" cy="1084.57" r="2.95"/><path class="cls-21" d="M963.64,1368.47c-6.53.47-7.62-3.56-11.41-12.5-2.34,7.1-9.2,32.75-46.26,31-.67,4.88-.89,9.1-.89,9.1l-7.77,2.88,5.43,5.08,7.34-1.67.65-9.87S936,1392.72,963.64,1368.47Z"/><path class="cls-15" d="M991.63,1383.84a75.12,75.12,0,0,1-39.4-27.87,62.79,62.79,0,0,1-4,10.06c3.88,4.17,14.41,14.58,37.23,24.7,1.41,38.12,0,0,6.14,96.75Z"/><path class="cls-9" d="M880.8,1082.1c-27.84,2.69-23,31.73-23,31.73s.28-14,18.54-11.73c2.6.35,6.13.13,7.45-3.52A38.42,38.42,0,0,1,880.8,1082.1Z"/><path class="cls-22" d="M929.72,1138.1s23.29-13.77-.42-45.08a25.52,25.52,0,0,0,2.4-7.4C957.16,1127.23,929.72,1138.1,929.72,1138.1Z"/><path class="cls-19" d="M970.94,1115c-3.53-10.48-10.37-34.62-38.29-42.3-.19-4.21-1-10.12-1.44-13.7,4.73,1.27,33.21,6,41.08,35.87,2.6,13.67-1.35,20.13-1.35,20.13"/><path class="cls-9" d="M991.13,1448.9c-.55-20-1.25-43.91-1.92-62.1v-.32l-.3-.12c-19-8-30.58-20.7-34.61-26.85a76.79,76.79,0,0,0,36.84,24.71Z"/><path class="cls-9" d="M967.41,1372.74a76.71,76.71,0,0,0,23.22,11.86v29.69c-.3-9.75-.62-19.23-.92-27.51l0-.64-.58-.25a86.6,86.6,0,0,1-21.69-13.15M952.23,1356c-.7,2.11,12.19,20.66,36.48,30.85,1.41,38.12,2.92,100.66,2.92,100.66V1383.84a75.12,75.12,0,0,1-39.4-27.87Z"/><path class="cls-9" d="M900.69,1088.37v-9.93l12.67-5.73-11.21,6.83S902.51,1082.7,900.69,1088.37Z"/><path class="cls-13" d="M1106.49,1102.1s-1,10.93,4.63,14.25c-5.93.4-13,1.6-19.59-9.12l-.81-2.61,7.27-9.72,6.17,2.33Z"/><path class="cls-14" d="M1069.48,1250.25c.44,5.39,1.2,14.49,1.2,14.49l7.17-2.06s-.61,8-2.66,12.31c4.1-.21,11.68-2.67,11.68-2.67s.62,9,1.85,11.69c3.9,0,10.46,4.51,10.46,4.51s-.62,6.77-1,14.35a52.73,52.73,0,0,0,2.26,15.59s1-1.44,4.92-6.57a34.83,34.83,0,0,1-2.46,14.56l8.2-.41-5.74,17a62.88,62.88,0,0,0,10.05.62c-2.26,4.92-9.23,18-9.23,18a69.07,69.07,0,0,0,10.46,2.25c-3.08,8-4.74,24.24-4.74,24.24,94.89-70.16,98.79-179.27,97.69-204.71s-15.58-70.2-51.33-74.37-58.79,25.89-66.91,33.35c-14.77,14.32-30.76,6.32-30.76,6.32s-17.83,46.46-47.55-5.44"/><path class="cls-9" d="M1062.56,1193.18c13.69,4,11,45.9,54.61-9.58,4-4.56,21.63-31.18,35.91-31,14.82,1,22.52,14.61,25.26,21.31s15.29,54.56-6.39,113.51c-14.43,38.33-34,69-60.08,100.83,39.73-40.63,51-61,65.26-96s18.56-80,16.43-103.47-10.65-46.11-25.26-50.29-47.78,15-54.78,27.16C1102,1176.6,1062.56,1193.18,1062.56,1193.18Z"/><path class="cls-2" d="M1111.87,1388.21c94.89-70.16,97.32-179.27,96.22-204.71s-15.58-70.2-51.33-74.37-58.79,25.89-66.91,33.35c-14.77,14.32-30.76,6.32-30.76,6.32l-9.76,14.56s24,23.93,52.75,13.62,35.3-50.51,70.1-27.7C1208.24,1177.86,1200.75,1302.35,1111.87,1388.21Z"/><path class="cls-15" d="M1055.59,1161.66s19.19,10.06-10.58,15.37-31.16-33.67-31.16-33.67c29.71,51.9,47.54,5.44,47.54,5.44s14.83,6.91,29.6-7.42c10.22-10,31.46-36.55,68.07-32.25,35.76,4.17,50.24,48.92,51.34,74.37s-3.64,134.55-98.53,204.71c0,0,92.2-70.65,86.87-205.44-4.26-56-37.11-65.53-41.89-66.17s-33.58-3.08-53.76,31.71C1085.54,1175.93,1068.3,1175.36,1055.59,1161.66Z"/><path class="cls-16" d="M991.84,1140.1c-.93,57.52-.24,233.16-.24,233.16s28.54-10.49,49.52-42.69c-2.44-10.73-6.55-18,2.92-46.59,12.64-33.45,43.91-36.35,49-82.45s-34.15-60-39.76-63.42c-9.69-4.13-17.8-23.9.49-45.37,3.66,7.56,19.76,23.42,35.61,9,14.4-13.91,1-32.45-3.65-36.59-11.31-10.92-30.74-9.52-51,0S992.49,1100.38,991.84,1140.1Z"/><path class="cls-17" d="M1041.12,1330.55c-2.44-10.73-6.55-18,2.92-46.59,12.64-33.44,43.91-36.34,49-82.44s-34.15-60-39.76-63.43c-9.69-4.13-17.8-23.9.49-45.37,3.66,7.57,3.46-32.39-16.78-22.88,0,0-26.16,46.75,12.31,72.53,16.73,9.62,36.7,25.66,32.06,59.18s-37.61,39.21-46.79,80.56C1031.23,1298,1029.72,1317.32,1041.12,1330.55Z"/><path class="cls-17" d="M1046.25,1080s-26,14.33-32.86,78.22-22,215.07-22,215.07,9-198.92,9.66-233,20.66-59.39,45.92-73.13Z"/><path class="cls-15" d="M1034.37,1078s-25.43,15.37-29.67,79.49-13.28,215.78-13.28,215.78,1-199.12.25-233.15,18.25-60.18,42.93-74.93Z"/><path class="cls-18" d="M1053.63,1092.75c3.66,7.56,19.75,23.42,35.61,9,14.09-15.33,1.65-31.89-3.48-36.59-11.55-11.32-30.91-9.51-51.16,0,0,0,29.19-10.26,47.42,2.35,14.07,11,12.48,28.73-.18,36.27C1075.81,1106.92,1064.47,1107.05,1053.63,1092.75Z"/><path class="cls-9" d="M991.92,1196.42c4.32.66,32.23,5.37,48.34,19.2-9.07,13.51-19.66,37.07-19.26,73.08-5.15,10.15-23.5,25.32-29,29.2Z"/><path class="cls-9" d="M992.43,1197a140.88,140.88,0,0,1,16.84,3.84c9,2.64,21.38,7.33,30.33,14.86-9,13.62-19.48,37.13-19.11,72.87-5,9.64-21.79,23.78-28,28.35l0-119.92m-1-1.17,0,123c4.83-3.09,24.75-19.43,30-30-.44-37.53,11-60.93,19.42-73.29-17.66-15.45-49.5-19.69-49.5-19.69Z"/><path class="cls-19" d="M991.45,1318.84c4.83-3.09,24.75-19.43,30-30-.44-37.53,11-60.93,19.42-73.29-17.66-15.45-49.5-19.69-49.5-19.69v9.23s23.68,1.69,39.75,11.84c-1.69,4.23-16.07,37.39-13.19,71.06C1017.14,1290.51,1008.22,1303,991.45,1318.84Z"/><path class="cls-15" d="M1058.65,1057.89s-7.22,22.39,3.3,38.83c3.29,5,7.53,12.51,23.59,7.86-4.55,3.35-19.37,7.71-32.13-11.78-7.89-12.91-1.89-33.66-1.89-33.66l7.13-1.25"/><path class="cls-9" d="M1029.61,1067.82c-14.59,10-22.76,27.88-19,42.57,8.55,33.57,42.56,27.71,42.56,27.71s-23.35-13.79.41-45.08c0,0-6.12-10.36-1.91-34C1051.64,1059,1036.55,1063.05,1029.61,1067.82Z"/><path class="cls-14" d="M991.23,1383.84a75.12,75.12,0,0,0,39.4-27.87c2.33,7.1,9.2,32.75,46.26,31,.66,4.88.89,9.1.89,9.1l7.76,2.88a120,120,0,0,1-9.32,8.43c.22,5.77,3.55,17.76,3.55,17.76l-15.31-.89v17.31l-15.67-1.33-1.86,16.87-12.87-2.67-10,18.64-13.32-4.43.67,4.43s-15.31,9.55-20.19,14.43Z"/><path class="cls-20" d="M1085.54,1104.58c-1.92,1.26,3.66,2.58,6,2.65,11.24-8.15,10.6-20.51,10.53-25.13a8.53,8.53,0,0,0-6.9-8,14,14,0,0,0,0,8A21.57,21.57,0,0,1,1085.54,1104.58Z"/><circle class="cls-18" cx="1075.33" cy="1084.57" r="2.95"/><path class="cls-21" d="M1019.21,1368.47c6.54.47,7.63-3.56,11.42-12.5,2.33,7.1,9.2,32.75,46.26,31,.66,4.88.89,9.1.89,9.1l7.76,2.88-5.42,5.08-7.35-1.67-.65-9.87S1046.87,1392.72,1019.21,1368.47Z"/><path class="cls-15" d="M991.23,1383.84a75.12,75.12,0,0,0,39.4-27.87,60.91,60.91,0,0,0,4,10.06c-3.88,4.17-14.41,14.58-37.24,24.7-1.41,38.12,0,0-6.13,96.75Z"/><path class="cls-9" d="M1102.05,1082.1c27.85,2.69,23,31.73,23,31.73s-.28-14-18.54-11.73c-2.6.35-6.13.13-7.46-3.52A38.25,38.25,0,0,0,1102.05,1082.1Z"/><path class="cls-22" d="M1053.14,1138.1s-23.29-13.77.41-45.08a25.75,25.75,0,0,1-2.39-7.4C1025.69,1127.23,1053.14,1138.1,1053.14,1138.1Z"/><path class="cls-19" d="M1011.91,1115c3.54-10.48,10.38-34.62,38.29-42.3.19-4.21,1-10.12,1.44-13.7-4.73,1.27-33.21,6-41.08,35.87-2.6,13.67,1.35,20.13,1.35,20.13"/><path class="cls-9" d="M991.73,1384.22a76.81,76.81,0,0,0,36.84-24.72c-4,6.14-15.6,18.88-34.62,26.86l-.29.12v.32c-.68,18.19-1.38,42.13-1.92,62.1Z"/><path class="cls-9" d="M1015.44,1372.74a86.34,86.34,0,0,1-21.68,13.15l-.59.25,0,.64c-.31,8.28-.62,17.76-.92,27.51V1384.6a76.7,76.7,0,0,0,23.21-11.86m15.19-16.77a75.12,75.12,0,0,1-39.4,27.87v103.64s1.5-62.54,2.92-100.66c24.29-10.19,37.17-28.74,36.48-30.85Z"/><path class="cls-9" d="M1082.17,1088.37v-9.93l-12.67-5.73,11.21,6.83S1080.34,1082.7,1082.17,1088.37Z"/><path class="cls-1" d="M490.35,528.25,448,574.71l-97.68-89,41.33-45.35c18.19-19.95,39.29-23.2,54.64-9.22l.27.26c11,10.05,11.83,21.5,9.38,32,14.62-7.36,27.54-8.36,40.66,3.59l.28.26C514.74,483.55,510.44,506.2,490.35,528.25Zm-59.89-72.47c-6.42-5.85-14.63-4.13-22.9,4.94l-19.33,21.21,20.66,18.82,18.05-19.81c8.65-9.49,11.05-18.29,3.79-24.9Zm44,30.17c-6.56-6-15.06-4.78-25.11,6.24L426.75,517l21.49,19.58,23.27-25.53c8.65-9.49,10.51-18.27,3.26-24.88Z"/><path class="cls-1" d="M549,470.72l-77.63-107,80.68-58.55,15.19,20.93L510,367.73l15.75,21.69,50.42-36.59,3.52,29.41-38.75,28.12,16.31,22.46,58.06-42.14,15.19,20.93Z"/><path class="cls-1" d="M744.93,356.69l-92.37-51.22,33.76,76.94L660,393.94l-53.1-121,24.55-10.77,89.4,49.63L688.2,237.26l26.28-11.53,53.1,121Z"/><path class="cls-1" d="M868.69,325.75c-40.47,7.5-73.58-15.74-80.71-54.17l-.07-.37c-6.84-36.95,16.32-72.54,55.68-79.84,23.39-4.33,38.67-.63,54.36,8.36l-14,25.06c-11.57-6.49-21.37-9.67-36.41-6.88-20.79,3.85-33.91,25.29-29.81,47.39l.06.37c4.41,23.76,24,38.18,47,33.92,10.4-1.93,19.2-6.25,25.47-12.79l-3.44-18.57-28.77,5.34-4.58-24.69,56.44-10.46,10.46,56.43C909.11,308.66,892.45,321.34,868.69,325.75Z"/><path class="cls-1" d="M1058.2,315.34l-10.79-30.13-55.83-2.42-13.35,29.09-29.62-1.27L1011,180.07l26.78,1.16,50.84,135.42Zm-35.75-99.81-19.39,42.06,35.09,1.51Z"/><path class="cls-1" d="M1117,323.72l32.83-128,28.16,7.22-26.26,102.42,63.83,16.37-6.57,25.6Z"/><path class="cls-1" d="M1283.4,382.18c-32-15.42-42.92-42.71-26-77.74l32.81-68,26.18,12.63-32.47,67.34c-9.35,19.39-4.5,34.09,11.48,41.8s30.36,2.69,39.46-16.18l32.89-68.19,26.19,12.63-32.4,67.17C1344.13,389.67,1315.37,397.6,1283.4,382.18Z"/><path class="cls-1" d="M1431.74,475.71l3.83-50.75-18-14.1-26.1,33.27-22.88-17.95,81.58-104,47.54,37.3c24.5,19.23,29.07,43.69,12.29,65.08l-.23.29c-13.17,16.79-30.51,20.23-47.58,14.76l-3.73,57.06Zm54.17-68.13c7.7-9.8,4.83-20.21-6.32-28.95l-22.72-17.83-23.43,29.86,23.18,18.18c11.14,8.74,22.18,7.81,29.06-1Z"/><path class="cls-1" d="M1513.61,562.55c-22.6-27.37-21.15-56.73,8.84-81.51L1580.67,433l18.52,22.41L1541.55,503c-16.59,13.71-18.33,29.1-7,42.78s26.45,15.13,42.61,1.78l58.37-48.22L1654,521.74l-57.5,47.5C1565.67,594.73,1536.22,589.91,1513.61,562.55Z"/><path class="cls-1" d="M505.36,1653.43c-33.84-25.73-39.11-71-14-104l.25-.32c24.86-32.69,69.85-40.73,105.17-13.88,21.68,16.49,29.16,33.58,31.85,52.21l-30.21,6.33c-2.75-14.8-8-26.6-19.54-35.34-19.38-14.74-45.58-9.25-60.57,10.46l-.25.32c-15,19.71-13.85,46.51,5.87,61.5,13.14,10,25.18,10.85,40.46,9.51l3.73,28.5C546.67,1672.39,527.53,1670.29,505.36,1653.43Z"/><path class="cls-1" d="M600.52,1711.66l66.9-128,28.17,14.72-66.91,128Z"/><path class="cls-1" d="M782,1664.38l-36.89,109.07L715,1763.27l36.9-109.07-41.64-14.09,9.39-27.75,113.38,38.34-9.39,27.76Z"/><path class="cls-1" d="M917.81,1750.32,911,1807.5l-31.56-3.74,6.7-56.56-44.83-93.42,36.89,4.37,27.39,61.64,41.66-53.46,35.86,4.25Z"/><path class="cls-1" d="M1009.34,1813.32l-2.29-24,70.32-99.56-76.63,7.3-2.64-27.73,117.29-11.18,2.3,24-70.32,99.57,79.09-7.54,2.64,27.73Z"/><path class="cls-1" d="M1187.27,1789.21l-43.45-137.75,103.9-32.77,8.5,27-73.79,23.27,8.81,27.95,64.94-20.49-1.86,30.23-54.57,17.22,9.12,28.93,74.78-23.59,8.51,27Z"/><path class="cls-1" d="M1433.78,1681.65,1327,1637.74l46.39,79.25-27.07,15.84-73-124.65,25.29-14.81L1402,1635.93l-44.93-76.75,27.06-15.84,73,124.65Z"/><path class="cls-1" d="M1547.26,1594.54a91.89,91.89,0,0,1-60.78,24.4l-1.37-29.26c16.83-.89,31.47-5.08,43.63-16.24,9.58-8.79,11.87-17.89,6.15-24.12l-.28-.31c-5.44-5.93-11.88-5.62-33.85,6.14-26.46,14.2-45.74,21-65.13-.17l-.28-.3c-17.72-19.31-13.93-46.31,7.82-66.26,15.5-14.23,33.19-21.5,51.94-22.74l4,28.79c-15.42,2.12-28.33,6.67-37.3,14.9s-9.91,16.67-5.17,21.84l.28.3c6.42,7,13.07,5.09,35.79-7.08,26.75-14.18,46-17.59,63,1l.28.3C1575.45,1546.83,1570.22,1573.47,1547.26,1594.54Z"/><path class="cls-9" d="M999.72,534.16c257.8,0,406.68,33.81,406.68,33.81s59.28,225.74,25.47,515.59C1417.81,1205.22,1319,1467,991.38,1556.12c-327.63-89.6-426.44-350.9-440.5-472.56C517.07,794.15,576.36,568,576.36,568S725.24,534.16,983,534.16h16.69m0-50H933.08v.42c-111.76,1.92-199.54,10-256.1,16.84-71.17,8.67-110.08,17.42-111.7,17.79l-29.59,6.72L528,555.3c-.64,2.45-15.85,61.09-26.73,156.26a1684.37,1684.37,0,0,0-10.66,168.7,1628.24,1628.24,0,0,0,10.62,209.1c3.14,27.17,11.18,70.83,31.61,124.54a623,623,0,0,0,224.75,288.61c64.27,45.12,138.5,79.38,220.61,101.84l13.15,3.59,13.16-3.58c82.13-22.35,156.37-56.55,220.66-101.65A622.76,622.76,0,0,0,1449.92,1214c20.44-53.76,28.47-97.44,31.61-124.62a1629.58,1629.58,0,0,0,10.62-209.26,1683,1683,0,0,0-10.66-168.68c-10.88-95.13-26.09-153.67-26.73-156.12l-7.71-29.34-29.58-6.71c-1.62-.37-40.53-9.12-111.7-17.79-64.73-7.88-170.37-17.27-306-17.27Z"/><path class="cls-23" d="M982.31,490c-280.09,0-441.84,36.74-441.84,36.74s-64.42,245.73-27.68,560.18c15.27,132.17,122.63,416.08,478.59,513.42h0c356-96.87,463.32-381.25,478.59-513.42,36.74-314.92-27.68-560.18-27.68-560.18S1280.54,490,1000.45,490Z"/></g></g></svg>