<svg xmlns="http://www.w3.org/2000/svg" width="105.053" height="105.053" viewBox="0 0 105.053 105.053"><defs><style>.a,.b{fill:#fff;}.a{opacity:0.252;}</style></defs><g transform="translate(366.053 1323.053) rotate(180)"><circle class="a" cx="52.526" cy="52.526" r="52.526" transform="translate(261 1218)"/><path class="b" d="M39.926,2.5a1.966,1.966,0,0,1,1.386.555,1.924,1.924,0,0,1,0,2.737L28.179,18.962,41.313,32.1a1.936,1.936,0,1,1-2.737,2.737L24.055,20.348a1.908,1.908,0,0,1-.555-1.386,2.062,2.062,0,0,1,.555-1.386l14.52-14.52A1.886,1.886,0,0,1,39.926,2.5Z" transform="translate(277.77 1252.269)"/></g></svg>