<svg xmlns="http://www.w3.org/2000/svg" width="34" height="34" viewBox="0 0 34 34"><defs><style>.a{fill:#2ca7e0;}.b{fill:#fff;}</style></defs><g transform="translate(-1 -1)"><path class="a" d="M32.167,1H3.833A2.842,2.842,0,0,0,1,3.833V32.167A2.842,2.842,0,0,0,3.833,35H32.167A2.842,2.842,0,0,0,35,32.167V3.833A2.842,2.842,0,0,0,32.167,1Z"/><path class="b" d="M31.25,15.121a13.25,13.25,0,0,1-2.833.921,6.036,6.036,0,0,0,2.125-2.833,14.28,14.28,0,0,1-2.267,1.275l-.567-.567A3.59,3.59,0,0,0,24.875,12.5a4.174,4.174,0,0,0-4.25,4.25,2.184,2.184,0,0,0,.071.708h-.071c-4.25,0-7.083-.921-9.208-3.542a4.463,4.463,0,0,0-.708,2.125,4.332,4.332,0,0,0,2.125,3.542,4.463,4.463,0,0,1-2.125-.708c0,2.125,2.975,4.533,4.958,4.958-.708.708-3.258.071-3.542,0a4.528,4.528,0,0,0,4.25,2.833,8.564,8.564,0,0,1-5.312,1.771A5.361,5.361,0,0,1,10,28.367a13.888,13.888,0,0,0,7.083,1.842c8,0,12.042-6.3,12.042-12.042v-.708A9.5,9.5,0,0,0,31.25,15.121Z" transform="translate(-2.625 -3.354)"/></g></svg>